HIERARCHY
ROOT Hips
{
	OFFSET 0.000000 0.000000 0.000000 
	CHANNELS 6 Xposition Yposition Zposition Zrotation Yrotation Xrotation
	JOINT LeftUpLeg
	{
		OFFSET 1.363060 -1.794630 0.839290 
		CHANNELS 3 Zrotation Yrotation Xrotation
		JOINT LeftLeg
		{
			OFFSET 2.448110 -6.726130 0.000000 
			CHANNELS 3 Zrotation Yrotation Xrotation
			JOINT LeftFoot
			{
				OFFSET 2.562200 -7.039590 0.000000 
				CHANNELS 3 Zrotation Yrotation Xrotation
				JOINT LeftToeBase
				{
					OFFSET 0.157640 -0.433110 2.322550 
					CHANNELS 3 Zrotation Yrotation Xrotation
					End Site
					{
						OFFSET 0.000000 0.000000 0.000000 
					}
				}
			}
		}
	}
	JOINT RightUpLeg
	{
		OFFSET -1.305520 -1.794630 0.839290 
		CHANNELS 3 Zrotation Yrotation Xrotation
		JOINT RightLeg
		{
			OFFSET -2.542530 -6.985550 0.000000 
			CHANNELS 3 Zrotation Yrotation Xrotation
			JOINT RightFoot
			{
				OFFSET -2.568260 -7.056230 0.000000 
				CHANNELS 3 Zrotation Yrotation Xrotation
				JOINT RightToeBase
				{
					OFFSET -0.164730 -0.452590 2.363150 
					CHANNELS 3 Zrotation Yrotation Xrotation
					End Site
					{
						OFFSET 0.000000 0.000000 0.000000 
					}
				}
			}
		}
	}
	JOINT Spine
	{
		OFFSET 0.028270 2.035590 -0.193380 
		CHANNELS 3 Zrotation Yrotation Xrotation
		JOINT Spine1
		{
			OFFSET 0.056720 2.048850 -0.042750 
			CHANNELS 3 Zrotation Yrotation Xrotation
			JOINT Neck1
			{
				OFFSET -0.054170 1.746240 0.172020 
				CHANNELS 3 Zrotation Yrotation Xrotation
				JOINT Head
				{
					OFFSET 0.104070 1.761360 -0.123970 
					CHANNELS 3 Zrotation Yrotation Xrotation
					End Site
					{
						OFFSET 0.000000 0.000000 0.000000 
					}
				}
			}
			JOINT LeftArm
			{
				OFFSET 3.362410 1.200890 -0.311210 
				CHANNELS 3 Zrotation Yrotation Xrotation
				JOINT LeftForeArm
				{
					OFFSET 4.983000 -0.000000 -0.000000 
					CHANNELS 3 Zrotation Yrotation Xrotation
					JOINT LeftHand
					{
						OFFSET 3.483560 -0.000000 -0.000000 
						CHANNELS 3 Zrotation Yrotation Xrotation
						JOINT LeftHandIndex1
						{
							OFFSET 0.715260 -0.000000 -0.000000 
							CHANNELS 3 Zrotation Yrotation Xrotation
							End Site
							{
								OFFSET 0.000000 0.000000 0.000000 
							}
						}
					}
				}
			}
			JOINT RightArm
			{
				OFFSET -3.136600 1.374050 -0.404650 
				CHANNELS 3 Zrotation Yrotation Xrotation
				JOINT RightForeArm
				{
					OFFSET -5.241900 -0.000000 -0.000000 
					CHANNELS 3 Zrotation Yrotation Xrotation
					JOINT RightHand
					{
						OFFSET -3.444170 -0.000000 -0.000000 
						CHANNELS 3 Zrotation Yrotation Xrotation
						JOINT RightHandIndex1
						{
							OFFSET -0.622530 -0.000000 -0.000000 
							CHANNELS 3 Zrotation Yrotation Xrotation
							End Site
							{
								OFFSET 0.000000 0.000000 0.000000 
							}
						}
					}
				}
			}
		}
	}
}
MOTION
Frames: 16
Frame Time: 0.041667
-1.048511 18.466247 4.547226 3.083480 -10.851467 -0.245314 -13.698616 -6.532324 -4.948629 -0.362785 5.530150 17.684793 -2.852795 15.329024 -18.025324 7.598900 -15.816200 -51.104700 1.752971 2.392040 -2.207977 0.253074 0.949987 1.600600 0.392231 -1.199350 7.459957 0.000000 0.000000 0.000000 -28.258447 -0.359916 25.101181 5.188062 -1.643017 -19.234320 3.989621 1.673937 25.841029 0.816500 1.713300 11.547600 -53.839815 -31.274676 -25.540954 112.453795 -54.546399 -79.074811 -0.279293 0.157194 -88.678074 -7.125000 0.000000 0.000000 34.274783 57.514936 65.178092 -150.945275 37.654555 -108.937943 0.321933 0.094878 -45.466290 7.125000 0.000000 0.000000 
-1.043094 18.466739 4.559931 3.026926 -10.699257 -0.187679 -13.651163 -6.646988 -4.968363 -0.356324 5.545500 17.729414 -2.844354 15.297440 -18.023350 7.607000 -15.822400 -51.134400 1.753689 2.389922 -2.210018 0.253624 0.947612 1.599482 0.392129 -1.201653 7.458910 0.000000 0.000000 0.000000 -28.065751 -0.084987 25.196133 5.183668 -1.484462 -19.300162 3.846549 1.394911 26.476107 0.772200 1.568100 11.712800 -53.124134 -29.992339 -23.303091 116.689503 -53.696277 -82.910702 -0.328472 0.082295 -85.602962 -7.125000 0.000000 0.000000 32.971888 55.595782 63.268557 -150.841835 37.742250 -108.929357 0.288902 0.070769 -45.577184 7.125000 0.000000 0.000000 
-1.038268 18.466936 4.573522 3.016487 -10.532378 -0.135447 -13.646646 -6.746457 -5.002169 -0.346183 5.566693 17.794438 -2.828944 15.239729 -18.009825 7.619400 -15.832100 -51.179900 1.754363 2.387559 -2.212187 0.254268 0.945003 1.598219 0.391958 -1.204195 7.457746 0.000000 0.000000 0.000000 -27.887183 0.197197 25.287129 5.218088 -1.312828 -19.349163 3.559073 1.161407 26.946069 0.673000 1.424200 11.800500 -52.266822 -28.599250 -20.982805 120.435092 -52.784611 -86.242012 -0.395481 0.046863 -82.722923 -7.125000 0.000000 0.000000 31.782545 53.630911 61.348429 -150.643522 37.902602 -108.849303 0.249956 0.035786 -45.779243 7.125000 0.000000 0.000000 
-1.032261 18.467921 4.588591 2.993920 -10.324600 -0.055708 -13.638723 -6.868583 -5.066566 -0.334801 5.583433 17.857806 -2.809497 15.160406 -17.978265 7.623000 -15.834900 -51.193200 1.756288 2.384426 -2.214926 0.254852 0.941635 1.596365 0.391489 -1.207710 7.456583 0.000000 0.000000 0.000000 -27.588068 0.502980 25.544840 5.219104 -1.142059 -19.330024 3.302230 0.949704 27.390415 0.593600 1.288900 11.896500 -51.251890 -27.160629 -18.568273 123.852541 -51.796229 -89.226240 -0.463924 0.037736 -80.342858 -7.125000 0.000000 0.000000 30.487882 51.614545 59.284597 -150.405019 38.092632 -108.739054 0.203025 -0.003946 -46.037828 7.125000 0.000000 0.000000 
-1.024775 18.469694 4.604448 3.007250 -10.113773 0.044625 -13.666598 -6.921585 -5.182060 -0.321123 5.601196 17.919593 -2.795755 15.075182 -17.849080 7.631500 -15.841400 -51.224400 1.758144 2.381531 -2.218128 0.255453 0.938293 1.594640 0.390986 -1.211108 7.455280 0.000000 0.000000 0.000000 -27.347753 0.845631 25.770757 5.192535 -0.957895 -19.284123 3.032702 0.699422 27.920765 0.501100 1.137800 12.039500 -50.098831 -25.677997 -15.764055 126.998294 -50.743643 -91.914408 -0.530776 0.033562 -77.991200 -7.125000 0.000000 0.000000 29.264514 49.426050 57.283613 -150.153957 38.283193 -108.627291 0.163417 -0.017888 -46.178366 7.125000 0.000000 0.000000 
-1.017192 18.471270 4.619615 3.070663 -9.927405 0.165281 -13.726177 -6.960915 -5.316569 -0.309339 5.629274 17.984131 -2.786729 15.010915 -17.714072 7.648000 -15.854200 -51.284800 1.757589 2.380103 -2.220609 0.256223 0.936272 1.594029 0.391000 -1.212732 7.453831 0.000000 0.000000 0.000000 -27.351251 1.199939 25.691584 5.155050 -0.756070 -19.309573 2.895678 0.323519 28.648015 0.427700 0.951900 12.239100 -48.777843 -23.919827 -12.487064 130.027056 -49.596436 -94.442700 -0.608454 0.032821 -75.589833 -7.125000 0.000000 0.000000 28.407526 47.074968 55.511430 -149.839232 38.527337 -108.457678 0.118603 -0.031244 -46.246670 7.125000 0.000000 0.000000 
-1.011086 18.472452 4.634684 3.102828 -9.732029 0.267309 -13.745758 -7.029831 -5.413964 -0.298765 5.658439 18.048650 -2.768239 14.928421 -17.633562 7.664200 -15.866600 -51.343900 1.756574 2.378844 -2.222875 0.257039 0.934441 1.593593 0.391189 -1.214084 7.452358 0.000000 0.000000 0.000000 -27.355296 1.569048 25.580831 5.099706 -0.543853 -19.380960 2.814083 -0.092706 29.346653 0.364900 0.751700 12.412600 -47.419927 -22.207046 -9.195840 132.891143 -48.367835 -96.789569 -0.700440 0.063790 -72.759394 -7.125000 0.000000 0.000000 27.717521 44.658283 53.848600 -149.492820 38.792334 -108.253667 0.071412 -0.061250 -46.343217 7.125000 0.000000 0.000000 
-1.005275 18.473732 4.649555 3.086591 -9.487381 0.337264 -13.723196 -7.036437 -5.520382 -0.282118 5.682564 18.116364 -2.737149 14.774250 -17.471267 7.687800 -15.884800 -51.430200 1.756480 2.376734 -2.224625 0.257768 0.932191 1.592556 0.391249 -1.216178 7.451203 0.000000 0.000000 0.000000 -27.163690 1.902229 25.668809 5.065567 -0.345053 -19.450909 2.760258 -0.427946 29.828155 0.332700 0.578600 12.495800 -46.172122 -20.954704 -6.118560 135.223559 -47.253136 -98.665619 -0.808066 0.149383 -69.175195 -7.125000 0.000000 0.000000 27.152843 42.325020 52.427987 -149.188248 39.001539 -108.082250 0.031076 -0.047145 -46.453790 7.125000 0.000000 0.000000 
-0.998085 18.475209 4.664230 3.064958 -9.190779 0.392880 -13.706747 -7.119444 -5.605683 -0.266432 5.705793 18.193681 -2.708411 14.648226 -17.385321 7.717200 -15.907200 -51.537400 1.757082 2.374422 -2.226022 0.258341 0.929956 1.591278 0.391238 -1.218472 7.450379 0.000000 0.000000 0.000000 -26.866344 2.215334 25.898206 5.000529 -0.161973 -19.485474 2.848367 -0.776222 30.123870 0.351200 0.407400 12.515400 -44.970988 -19.899896 -2.804809 137.239287 -46.212381 -100.237215 -0.933699 0.239579 -65.448611 -7.125000 0.000000 0.000000 26.910608 39.981327 51.227957 -148.835900 39.216124 -107.876952 -0.003196 -0.023528 -46.287967 7.125000 0.000000 0.000000 
-0.990403 18.477080 4.677625 3.063469 -8.821771 0.458232 -13.717476 -7.316524 -5.688126 -0.252365 5.730360 18.283977 -2.697449 14.600856 -17.361323 7.768000 -15.945900 -51.722700 1.758876 2.371633 -2.227968 0.258800 0.927191 1.589575 0.390942 -1.221480 7.449612 0.000000 0.000000 0.000000 -26.474579 2.525412 26.251313 4.921550 0.016509 -19.461283 2.713467 -1.089360 30.292124 0.282500 0.230800 12.507000 -43.851987 -18.991677 0.816479 139.208457 -45.121178 -101.724521 -1.067325 0.320774 -61.512283 -7.125000 0.000000 0.000000 26.926195 37.591841 50.084163 -148.450948 39.422054 -107.646608 -0.029584 -0.021467 -45.883037 7.125000 0.000000 0.000000 
-0.981440 18.479149 4.688754 3.032497 -8.385340 0.530358 -13.702395 -7.490969 -5.821047 -0.231288 5.759970 18.386567 -2.690863 14.522264 -17.172727 7.828300 -15.991500 -51.941800 1.760028 2.369244 -2.228437 0.259145 0.925300 1.588131 0.390880 -1.223711 7.449352 0.000000 0.000000 0.000000 -26.007633 2.776521 26.633147 4.824886 0.166085 -19.462022 2.542392 -1.341179 30.513728 0.206300 0.083500 12.531300 -42.849181 -18.233042 4.539267 141.064521 -44.028326 -103.077211 -1.202811 0.421954 -57.645074 -7.125000 0.000000 0.000000 27.140468 35.317530 49.012919 -148.201729 39.520673 -107.489068 -0.082165 -0.010098 -45.645522 7.125000 0.000000 0.000000 
-0.971395 18.480626 4.696732 2.926227 -7.919509 0.533243 -13.630147 -7.599019 -5.937714 -0.201829 5.794031 18.507439 -2.667508 14.353917 -16.877936 7.866300 -16.020000 -52.079700 1.760951 2.367198 -2.226978 0.259225 0.924369 1.586923 0.391181 -1.225172 7.449846 0.000000 0.000000 0.000000 -25.339451 2.973454 27.103187 4.667807 0.296264 -19.596289 2.779347 -1.664070 30.818043 0.282700 -0.057400 12.597700 -42.040732 -17.618647 8.336079 142.784837 -42.956940 -104.288815 -1.322160 0.550110 -54.320531 -7.125000 0.000000 0.000000 27.604200 33.138378 48.097634 -148.007544 39.582516 -107.344706 -0.151847 -0.047051 -45.389586 7.125000 0.000000 0.000000 
-0.963614 18.481119 4.699489 2.793112 -7.445588 0.479229 -13.541457 -7.651751 -6.043897 -0.166889 5.829692 18.645877 -2.632139 14.136531 -16.561455 7.892600 -16.039700 -52.175100 1.763722 2.364058 -2.226107 0.259163 0.922317 1.585011 0.391150 -1.227995 7.450329 0.000000 0.000000 0.000000 -24.449695 3.137828 27.667464 4.527428 0.440167 -19.832746 3.148081 -2.034031 31.066113 0.409300 -0.211700 12.642200 -41.494934 -17.300093 12.162676 144.287190 -41.969813 -105.318490 -1.402519 0.696267 -51.147063 -7.125000 0.000000 0.000000 28.317936 30.986382 47.454538 -147.844845 39.599380 -107.232303 -0.197744 -0.104199 -45.029621 7.125000 0.000000 0.000000 
-0.958099 18.481316 4.697913 2.804336 -7.084228 0.548476 -13.485531 -7.647771 -6.265082 -0.142111 5.902965 18.772199 -2.604267 13.955475 -16.191714 7.932800 -16.069600 -52.320400 1.754565 2.367633 -2.221160 0.259984 0.926704 1.588209 0.393693 -1.222351 7.450325 0.000000 0.000000 0.000000 -24.746124 3.373746 27.007023 4.340451 0.598149 -20.312458 3.666580 -2.644343 31.456648 0.502700 -0.431600 12.648900 -40.940262 -17.087497 16.523860 145.630648 -41.070850 -106.216766 -1.453026 0.825289 -48.458655 -7.125000 0.000000 0.000000 29.912312 28.335023 47.407662 -147.858205 39.475671 -107.239264 -0.250813 -0.128717 -44.798077 7.125000 0.000000 0.000000 
-0.952583 18.482005 4.693186 2.722282 -6.602858 0.503990 -13.424901 -7.580361 -6.459063 -0.101411 5.947391 18.921511 -2.566155 13.695064 -15.717590 7.973000 -16.099300 -52.465200 1.756284 2.365704 -2.219564 0.259822 0.925814 1.587069 0.393895 -1.223841 7.451028 0.000000 0.000000 0.000000 -23.982760 3.515404 27.436378 4.164618 0.723817 -20.571512 3.951716 -3.009366 31.413244 0.577800 -0.590900 12.576900 -40.743810 -17.065934 20.531030 146.830340 -40.208946 -106.999973 -1.517353 0.908102 -46.280875 -7.125000 0.000000 0.000000 31.154405 26.390674 47.137925 -147.884244 39.323138 -107.249550 -0.325216 -0.165639 -44.861597 7.125000 0.000000 0.000000 
-0.947068 18.483088 4.684519 2.540928 -6.034593 0.362678 -13.365174 -7.517641 -6.608378 -0.048014 5.963734 19.096051 -2.508911 13.351755 -15.253553 7.993200 -16.114300 -52.538300 1.770638 2.357344 -2.223006 0.258647 0.918207 1.581041 0.391300 -1.233921 7.451950 0.000000 0.000000 0.000000 -22.110372 3.480236 28.849897 4.030259 0.811475 -20.638919 3.985712 -3.077083 31.173310 0.645800 -0.664900 12.513500 -40.917275 -17.164934 24.101954 147.880438 -39.408487 -107.661377 -1.596809 0.956315 -44.394507 -7.125000 0.000000 0.000000 32.033994 25.242049 46.779131 -147.914838 39.173725 -107.253148 -0.412663 -0.231698 -45.271472 7.125000 0.000000 0.000000 
